<?xml version="1.0" standalone="no"?>
<svg version="1.0" xmlns="http://www.w3.org/2000/svg" viewBox="0 0 400 400">
    <g transform="translate(0.000000,400.000000) scale(0.100000,-0.100000)" fill="#ff0000" stroke="none">
        <path d="M405 3311 c-11 -5 -29 -19 -40 -31 -20 -22 -20 -38 -23 -1254 -1
-677 0 -1246 3 -1264 4 -23 16 -39 38 -52 30 -19 54 -20 490 -20 485 0 501 1
523 47 5 10 11 303 14 651 l5 633 270 -210 c266 -207 306 -232 353 -217 11 4
132 101 269 217 l248 209 5 -632 c3 -348 9 -641 14 -651 22 -46 37 -47 536
-47 511 0 513 0 538 55 17 38 17 2482 0 2520 -25 55 -28 55 -525 55 -413 -1
-461 -3 -489 -18 -27 -15 -125 -115 -505 -519 l-124 -132 -325 324 c-179 178
-338 329 -353 335 -34 12 -892 13 -922 1z"/>
    </g>
</svg>